<svg width="24" height="24" viewBox="0 0 24 24" fill="none" xmlns="http://www.w3.org/2000/svg">
<path d="M18.8751 18.2747L17.6636 17.0403V18.1517H5.84425V16.3914H8V15.7127H5.84425V12.892H8V12.2133H5.84425V9.49864V8.81997V6.44888L17.6636 18.1517V17.0403L5.72183 5.12548C5.66279 5.06566 5.58736 5.02486 5.50515 5.00829C5.42294 4.99171 5.33769 5.00012 5.26025 5.03243C5.18282 5.06473 5.11671 5.11948 5.07036 5.18969C5.02401 5.2599 4.99952 5.34238 5.00001 5.42663V18.5758C5.00001 18.6883 5.04448 18.7962 5.12364 18.8758C5.20281 18.9553 5.31017 19 5.42213 19H18.5754C18.6593 19.0005 18.7414 18.9759 18.8112 18.9293C18.8811 18.8827 18.9356 18.8163 18.9677 18.7385C18.9999 18.6607 19.0082 18.575 18.9918 18.4924C18.9753 18.4098 18.9347 18.334 18.8751 18.2747Z" fill="#283646" fill-opacity="0.8"/>
<path d="M17.8136 16.979L18.981 18.1684C18.9812 18.1686 18.9814 18.1689 18.9817 18.1691C19.0619 18.2493 19.1166 18.3517 19.1389 18.463C19.1611 18.5747 19.1498 18.6905 19.1064 18.7958C19.0629 18.901 18.9891 18.991 18.8944 19.0541C18.7998 19.1172 18.6886 19.1506 18.5749 19.15M17.8136 16.979L5.42213 19C5.31017 19 5.20281 18.9553 5.12364 18.8758C5.04448 18.7962 5.00001 18.6883 5.00001 18.5758V5.42663M17.8136 16.979V16.9781L17.7707 16.9353L17.7696 16.9342L17.5136 16.6734V16.6788L5.82859 5.02011C5.82845 5.01996 5.8283 5.01981 5.82816 5.01967C5.74825 4.93888 5.64615 4.88369 5.53479 4.86124C5.42323 4.83875 5.30754 4.85017 5.2025 4.89399C5.09746 4.93781 5.00791 5.01202 4.94518 5.10705C4.88254 5.20193 4.84944 5.31331 4.85001 5.42703M17.8136 16.979L5.00001 5.42663M18.5749 19.15C18.5748 19.15 18.5747 19.15 18.5745 19.15L18.5754 19V19.15H18.5749ZM18.5749 19.15H5.42213C5.27016 19.15 5.12456 19.0893 5.01732 18.9816C4.91011 18.8738 4.85001 18.7279 4.85001 18.5758V5.42703M4.85001 5.42703C4.85001 5.42719 4.85001 5.42735 4.85001 5.4275L5.00001 5.42663M4.85001 5.42703V5.42663H5.00001M5.99425 6.80849L17.299 18.0017H5.99425V16.5414H8H8.15V16.3914V15.7127V15.5627H8H5.99425V13.042H8H8.15V12.892V12.2133V12.0633H8H5.99425V9.49864V8.81997V6.80849Z" stroke="#283646" stroke-opacity="0.8" stroke-width="0.3"/>
</svg>
