<svg width="24" height="24" viewBox="0 0 24 24" fill="none" xmlns="http://www.w3.org/2000/svg">
<path fill-rule="evenodd" clip-rule="evenodd" d="M7.7125 5.56445H16.2839L16.2859 5.56446C16.855 5.56616 17.4005 5.79299 17.803 6.19542C18.2054 6.59785 18.4322 7.14318 18.4339 7.7123L18.4339 7.7142V10.999C18.7402 11.1452 19.0224 11.3434 19.2669 11.5878C19.8299 12.1509 20.1473 12.9138 20.1496 13.7101L20.1496 13.7121L20.1496 17.4261L20.1496 17.428V17.7122V17.7139C20.1496 18.1123 19.8266 18.4353 19.4282 18.4353C19.0297 18.4353 18.7068 18.1123 18.7068 17.7139V17.7123C18.7068 17.7123 18.7068 17.7123 18.7068 17.7122L18.7068 17.43C18.7068 17.43 18.7068 17.4299 18.7068 17.4299C18.7065 17.3936 18.692 17.3586 18.6663 17.3329C18.6406 17.3073 18.6058 17.2927 18.5695 17.2925H5.42967C5.39337 17.2927 5.35862 17.3073 5.33295 17.3329C5.30727 17.3586 5.29273 17.3934 5.29247 17.4297V17.7122V17.7139C5.29247 18.1123 4.96947 18.4353 4.57104 18.4353C4.1726 18.4353 3.84961 18.1123 3.84961 17.7139L3.84961 17.7124C3.84961 17.7123 3.84961 17.7123 3.84961 17.7122L3.84961 17.4263L3.84961 13.7103C3.85197 12.9141 4.16932 12.1509 4.73236 11.5878C4.97611 11.3441 5.25733 11.1464 5.5625 11.0003L5.5625 7.71252C5.5642 7.1434 5.79104 6.59785 6.19347 6.19542C6.5959 5.79299 7.14123 5.56616 7.71035 5.56446L7.7125 5.56445ZM18.7068 15.8557C18.6624 15.8518 18.6178 15.8497 18.5729 15.8496L18.571 15.8496H5.42818L5.42609 15.8496C5.38131 15.8497 5.33673 15.8518 5.29247 15.8557V13.7134C5.29394 13.2987 5.45934 12.9014 5.75261 12.6081C6.02736 12.3333 6.39344 12.1708 6.77959 12.1502H17.2196C17.6058 12.1708 17.9719 12.3333 18.2466 12.6081C18.54 12.9014 18.7054 13.2989 18.7068 13.7137V15.8557ZM11.2504 10.7051H7.60872C7.62986 10.651 7.66209 10.6013 7.70395 10.5594C7.78311 10.4803 7.89032 10.4356 8.00225 10.435H10.8569C10.9688 10.4356 11.076 10.4803 11.1552 10.5594C11.1971 10.6013 11.2293 10.651 11.2504 10.7051ZM16.393 10.7051H12.7513C12.7724 10.651 12.8047 10.6013 12.8465 10.5594C12.9257 10.4803 13.0329 10.4356 13.1448 10.435H15.9995C16.1114 10.4356 16.2186 10.4803 16.2978 10.5594C16.3396 10.6013 16.3719 10.651 16.393 10.7051ZM16.2827 7.00731H7.71377C7.52615 7.0081 7.34641 7.08299 7.21372 7.21568C7.08103 7.34837 7.00615 7.5281 7.00536 7.71573V9.28175C7.30036 9.09502 7.64435 8.99318 7.99898 8.99219L8.001 8.99219H10.8581L10.86 8.99219C11.2753 8.99335 11.6763 9.13286 12.0009 9.38509C12.3254 9.13286 12.7262 8.99335 13.1416 8.99219L13.1436 8.99219H16.0007L16.0025 8.99219C16.3551 8.99318 16.6972 9.09381 16.9911 9.27843L16.9911 7.71607C16.9903 7.52841 16.9154 7.34839 16.7827 7.21568C16.65 7.08299 16.4703 7.0081 16.2827 7.00731Z" fill="#283646" fill-opacity="0.8"/>
</svg>
