<svg width="77" height="77" viewBox="0 0 77 77" fill="none" xmlns="http://www.w3.org/2000/svg">
<g clip-path="url(#clip0_959_12826)">
<path d="M45.2991 2.78599C43.9546 0.937385 41.6675 0 38.5012 0C35.3348 0 33.0477 0.937385 31.7032 2.78599C29.4783 5.84523 30.8418 10.1691 30.901 10.3517L33.0471 9.65658C33.0361 9.62274 31.9957 6.2194 33.5276 4.11288C34.4238 2.88058 36.097 2.25586 38.5012 2.25586C40.9007 2.25586 42.5722 2.87833 43.4695 4.10566C45.0214 6.22873 43.9652 9.625 43.9543 9.65914L45.0283 10.0041L46.1013 10.3517C46.1604 10.1691 47.524 5.84538 45.2991 2.78599Z" fill="#FFD366"/>
<path d="M27.1406 66.592L27.2027 67.7791C27.3831 71.2229 29.0904 77.0001 38.4993 77.0001C47.9069 77.0001 49.615 71.2241 49.7959 67.781L49.8584 66.594L27.1406 66.592Z" fill="#FFD366"/>
<path d="M72.0867 65.6575C71.9363 65.9552 71.6611 66.1718 71.3363 66.2485C71.2972 66.2575 69.9331 66.5703 67.3885 66.9854C62.2301 67.8261 52.2126 69.0849 38.5001 69.0849C18.0216 69.0849 5.78582 66.2771 5.66401 66.2485C5.33916 66.1718 5.06395 65.9552 4.91356 65.6575C4.76317 65.3582 4.75264 65.0078 4.88649 64.701C6.73629 60.4299 9.44934 55.1662 10.1411 53.8383L11.4134 50.2048L9.73057 46.3533C9.72305 44.5577 9.77869 42.5364 9.94563 40.3813C10.493 33.2814 12.406 23.3706 18.4171 16.4797C23.2717 10.9153 30.0273 8.09546 38.5001 8.09546C41.329 8.09546 43.9653 8.40978 46.4047 9.0354C46.4047 9.0354 46.4062 9.0354 46.4077 9.0369C51.2728 10.2851 55.3499 12.7741 58.5832 16.4797C64.5943 23.3706 66.5072 33.2814 67.0547 40.3813C67.2216 42.5364 67.2772 44.5577 67.2697 46.3533L65.5538 50.2048L66.8591 53.8383C67.5509 55.1662 70.264 60.4299 72.1138 64.701C72.2476 65.0078 72.2371 65.3582 72.0867 65.6575Z" fill="#FFF18D"/>
<path d="M72.0853 65.6577C71.9349 65.9554 71.6597 66.172 71.3348 66.2487C71.2957 66.2577 69.9317 66.5705 67.3871 66.9856C64.7417 58.7743 62.5084 54.1889 62.5084 54.1889C66.6622 20.8097 46.689 9.19953 46.4062 9.03711C51.2714 10.2854 55.3485 12.7743 58.5817 16.4799C64.5928 23.3708 66.5058 33.2816 67.0532 40.3815C67.2202 42.5366 67.2758 44.5579 67.2683 46.3535L65.5523 50.205L66.8577 53.8385C67.5495 55.1664 70.2626 60.4301 72.1124 64.7012C72.2462 65.008 72.2357 65.3584 72.0853 65.6577Z" fill="#FFD366"/>
<path d="M61.0381 40.5896C60.6517 35.8279 59.762 31.5806 58.3941 27.9656C58.1736 27.383 57.5226 27.0893 56.94 27.3099C56.3573 27.5304 56.0638 28.1815 56.2843 28.7641C57.5775 32.1814 58.4204 36.2213 58.7896 40.7722C58.8374 41.362 59.331 41.809 59.9126 41.809C59.9433 41.809 59.9741 41.8077 60.0051 41.8052C60.626 41.7547 61.0885 41.2104 61.0381 40.5896Z" fill="#FFD366"/>
<path d="M56.3541 23.6566C55.6549 22.4676 54.8748 21.3781 54.0355 20.4184C53.6254 19.9495 52.9128 19.9017 52.4441 20.312C51.9751 20.7221 51.9273 21.4346 52.3376 21.9035C53.0844 22.7576 53.7816 23.7321 54.4097 24.8002C54.6198 25.1575 54.9963 25.3565 55.383 25.3565C55.5773 25.3565 55.7742 25.3063 55.9537 25.2007C56.4903 24.8849 56.6697 24.1937 56.3541 23.6566Z" fill="#FFD366"/>
<path d="M67.2696 46.3535C67.2576 50.1043 66.9734 52.8745 66.8591 53.8385C66.8591 53.8385 65.3536 54.0084 62.5248 54.2204C57.8537 54.5724 49.5703 55.0386 38.5 55.0386C20.727 55.0386 10.141 53.8385 10.141 53.8385C10.0779 53.3016 9.96057 52.2037 9.86883 50.6878C9.79514 49.4831 9.73648 48.0138 9.73047 46.3535C11.0569 46.4693 21.8744 47.3656 38.5 47.3656C49.6966 47.3656 58.2597 46.9596 63.0632 46.6588C65.3912 46.5114 66.8365 46.3911 67.2696 46.3535Z" fill="#FF7262"/>
<path d="M17.9365 41.8022C18.5595 41.8022 19.0645 41.2973 19.0645 40.6743C19.0645 40.0514 18.5595 39.5464 17.9365 39.5464C17.3136 39.5464 16.8086 40.0514 16.8086 40.6743C16.8086 41.2973 17.3136 41.8022 17.9365 41.8022Z" fill="#FFD366"/>
<path d="M30.8975 18.3257C31.5204 18.3257 32.0254 17.8207 32.0254 17.1978C32.0254 16.5748 31.5204 16.0698 30.8975 16.0698C30.2745 16.0698 29.7695 16.5748 29.7695 17.1978C29.7695 17.8207 30.2745 18.3257 30.8975 18.3257Z" fill="#FFD366"/>
<path d="M61.2959 62.3682C61.9188 62.3682 62.4238 61.8632 62.4238 61.2402C62.4238 60.6173 61.9188 60.1123 61.2959 60.1123C60.673 60.1123 60.168 60.6173 60.168 61.2402C60.168 61.8632 60.673 62.3682 61.2959 62.3682Z" fill="#FFD366"/>
<path d="M67.2716 46.3535C67.2595 50.1043 66.9753 52.8745 66.861 53.8385C66.861 53.8385 65.3556 54.0084 62.5268 54.2204C62.5162 54.1994 62.5117 54.1889 62.5117 54.1889C62.8411 51.5435 63.0185 49.0365 63.0652 46.6588C65.3932 46.5114 66.8385 46.3911 67.2716 46.3535Z" fill="#F24E1E"/>
<path d="M7.12788 26.2128C7.63425 26.2128 8.0946 25.8693 8.22183 25.3557C8.37162 24.751 8.00286 24.1395 7.39814 23.9897L1.39936 22.5037C0.794935 22.3536 0.183146 22.7226 0.0333574 23.3274C-0.116432 23.9321 0.252326 24.5436 0.857047 24.6934L6.85583 26.1794C6.94696 26.2019 7.0381 26.2128 7.12788 26.2128Z" fill="#FFF18D"/>
<path d="M1.71447 12.6875L11.4202 18.2671C11.5974 18.3689 11.7906 18.4175 11.9813 18.4175C12.3719 18.4175 12.7516 18.2143 12.9602 17.8514C13.2706 17.3114 13.0846 16.6218 12.5445 16.3114L2.83864 10.7318C2.29859 10.4214 1.60904 10.6074 1.29864 11.1475C0.988232 11.6875 1.17442 12.3771 1.71447 12.6875Z" fill="#FFF18D"/>
<path d="M16.4691 10.7295C16.6915 11.0138 17.0231 11.1624 17.3582 11.1624C17.6012 11.1624 17.8462 11.084 18.0526 10.9226C18.5431 10.5387 18.6295 9.82976 18.2457 9.33918L15.5319 5.87163C15.1479 5.38105 14.4391 5.29443 13.9484 5.67852C13.4578 6.06247 13.3715 6.77141 13.7553 7.26199L16.4691 10.7295Z" fill="#FFF18D"/>
<path d="M76.9678 23.8172C76.818 23.2125 76.2067 22.8436 75.6018 22.9937L69.603 24.4798C68.9984 24.6296 68.6297 25.2413 68.7795 25.8458C68.9067 26.3594 69.367 26.7028 69.8734 26.7028C69.9632 26.7028 70.0545 26.6919 70.1456 26.6694L76.1444 25.1832C76.749 25.0336 77.1176 24.4219 76.9678 23.8172Z" fill="#FFF18D"/>
<path d="M65.0159 18.9075C65.2066 18.9075 65.3999 18.8591 65.577 18.7571L75.2828 13.1776C75.8228 12.8672 76.009 12.1777 75.6984 11.6376C75.388 11.0974 74.6985 10.9112 74.1584 11.2219L64.4527 16.8014C63.9127 17.1118 63.7265 17.8014 64.037 18.3414C64.2456 18.7043 64.6252 18.9075 65.0159 18.9075Z" fill="#FFF18D"/>
<path d="M58.9445 11.4128C59.1508 11.5743 59.3957 11.6525 59.6389 11.6525C59.9739 11.6525 60.3055 11.5039 60.528 11.2197L63.2418 7.75211C63.6257 7.26154 63.5392 6.5526 63.0487 6.16865C62.5581 5.7847 61.849 5.87133 61.4652 6.36175L58.7514 9.82931C58.3676 10.3199 58.4539 11.0288 58.9445 11.4128Z" fill="#FFF18D"/>
</g>
<defs>
<clipPath id="clip0_959_12826">
<rect width="77" height="77" fill="white"/>
</clipPath>
</defs>
</svg>
