<svg width="24" height="24" viewBox="0 0 24 24" fill="none" xmlns="http://www.w3.org/2000/svg">
<path fill-rule="evenodd" clip-rule="evenodd" d="M3.29641 18.4972H2.41252V18.8471H3.22432V19.1425H2.41252V19.5725H3.33563V19.8682H2.07161V18.2025H3.29641V18.4972ZM4.41414 19.4152L4.58123 19.5726C4.52311 19.6024 4.45864 19.6176 4.39335 19.617C4.20534 19.617 3.94075 19.5012 3.94075 19.0351C3.94075 18.5689 4.20534 18.4531 4.39335 18.4531C4.58123 18.4531 4.84556 18.5689 4.84556 19.0351C4.84556 19.1912 4.81543 19.3065 4.76912 19.3928L4.59281 19.2282L4.41414 19.4152ZM5.20067 19.7999L5.01926 19.6292C5.12135 19.4991 5.19357 19.309 5.19357 19.0352C5.19357 18.2536 4.6136 18.1588 4.39322 18.1588C4.17296 18.1588 3.59325 18.2536 3.59325 19.0352C3.59325 19.8172 4.17296 19.9119 4.39322 19.9119C4.49034 19.9119 4.66216 19.8937 4.81992 19.8001L5.01739 19.9886L5.20067 19.7999ZM6.83125 19.2858C6.83125 19.7236 6.56641 19.9117 6.14657 19.9117C5.99367 19.9117 5.76631 19.8748 5.6179 19.7102C5.5275 19.6088 5.49264 19.4731 5.48816 19.3065V18.2025H5.84301V19.283C5.84301 19.5157 5.97748 19.6172 6.13959 19.6172C6.37878 19.6172 6.47589 19.5014 6.47589 19.2995V18.2025H6.83137V19.2858H6.83125ZM7.7632 18.5784H7.76831L7.97437 19.2372H7.54929L7.7632 18.5784ZM7.45641 19.5239H8.07136L8.17819 19.8683H8.55633L7.96989 18.2025H7.56834L6.97456 19.8683H7.34099L7.45641 19.5239ZM9.17564 19.5667H10.0036V19.8682H8.82726V18.2025H9.17564V19.5667ZM11.3229 19.1206V19.8682H10.9756V18.2025H11.3229V18.8332H11.9726V18.2025H12.3201V19.8682H11.9726V19.1206H11.3229ZM12.9833 19.0351C12.9833 18.5689 13.2481 18.4531 13.4354 18.4531C13.6236 18.4531 13.8882 18.5689 13.8882 19.0351C13.8882 19.5012 13.6236 19.617 13.4354 19.617C13.2481 19.617 12.9833 19.5012 12.9833 19.0351ZM12.6358 19.0351C12.6358 19.8171 13.216 19.9117 13.4354 19.9117C13.6566 19.9117 14.2362 19.8171 14.2362 19.0351C14.2362 18.2535 13.6567 18.1586 13.4354 18.1586C13.2161 18.1586 12.6358 18.2535 12.6358 19.0351ZM15.8972 19.2858C15.8972 19.7236 15.6323 19.9117 15.2124 19.9117C15.0592 19.9117 14.8325 19.8748 14.6835 19.7102C14.5932 19.6088 14.5582 19.4731 14.5541 19.3065V18.2025H14.9084V19.283C14.9084 19.5157 15.0434 19.6172 15.2061 19.6172C15.445 19.6172 15.5422 19.5014 15.5422 19.2995V18.2025H15.8973V19.2858H15.8972ZM16.5338 19.3551C16.5369 19.4477 16.5836 19.6243 16.8872 19.6243C17.0515 19.6243 17.2352 19.5849 17.2352 19.4081C17.2352 19.2787 17.1099 19.2435 16.9338 19.2019L16.755 19.1601C16.4851 19.0976 16.2256 19.0381 16.2256 18.6715C16.2256 18.4857 16.3261 18.1586 16.8662 18.1586C17.377 18.1586 17.5136 18.4923 17.516 18.6965H17.1816C17.1727 18.6228 17.1446 18.446 16.8407 18.446C16.7089 18.446 16.5511 18.4947 16.5511 18.6455C16.5511 18.7761 16.6578 18.8029 16.7267 18.8192L17.1331 18.9189C17.3604 18.9748 17.5688 19.0677 17.5688 19.3666C17.5688 19.8683 17.0588 19.9119 16.9125 19.9119C16.3053 19.9119 16.201 19.5615 16.201 19.3552H16.5338V19.3551ZM18.2019 19.8682H17.855V18.2025H18.2019V19.8682ZM19.5919 18.2025H19.9162V19.8682H19.5687L18.8895 18.68H18.8837V19.8682H18.5593V18.2025H18.9257L19.586 19.3624H19.5919V18.2025ZM21.0806 18.9703H21.7759V19.8682H21.5444L21.5097 19.6595C21.4217 19.7606 21.294 19.9116 20.99 19.9116C20.5889 19.9116 20.2251 19.6241 20.2251 19.0398C20.2251 18.5856 20.478 18.156 21.0386 18.1585C21.5497 18.1585 21.7516 18.4897 21.7691 18.7203H21.4215C21.4215 18.6552 21.3029 18.446 21.0575 18.446C20.8087 18.446 20.5794 18.6175 20.5794 19.044C20.5794 19.499 20.8276 19.617 21.0641 19.617C21.1407 19.617 21.3965 19.5874 21.4677 19.2506H21.0806V18.9703ZM2.34553 21.5654C2.34553 21.0992 2.60987 20.9829 2.7975 20.9829C2.98539 20.9829 3.2496 21.0992 3.2496 21.5654C3.2496 22.0313 2.98539 22.1481 2.7975 22.1481C2.60987 22.1481 2.34553 22.0313 2.34553 21.5654ZM1.99765 21.5654C1.99765 22.3467 2.57737 22.443 2.79763 22.443C3.01801 22.443 3.59773 22.3468 3.59773 21.5654C3.59773 20.7839 3.01789 20.6889 2.79763 20.6889C2.57737 20.6889 1.99765 20.7841 1.99765 21.5654ZM4.55097 21.5095V21.0196H4.82701C5.04254 21.0196 5.13318 21.0875 5.13318 21.25C5.13318 21.3242 5.13318 21.5095 4.87321 21.5095H4.55097ZM4.55097 21.7976H4.94965C5.39752 21.7976 5.48069 21.4167 5.48069 21.2662C5.48069 20.9393 5.28633 20.7326 4.9636 20.7326H4.20322V22.3985H4.55097V21.7976ZM6.42485 21.5095V21.0196H6.70039C6.91616 21.0196 7.00668 21.0875 7.00668 21.25C7.00668 21.3242 7.00668 21.5095 6.74733 21.5095H6.42485ZM6.42485 21.7976H6.82378C7.27126 21.7976 7.35506 21.4167 7.35506 21.2662C7.35506 20.9393 7.16045 20.7326 6.83797 20.7326H6.07684V22.3985H6.42485V21.7976ZM8.22501 21.5654C8.22501 21.0992 8.48872 20.9829 8.67735 20.9829C8.86437 20.9829 9.12932 21.0992 9.12932 21.5654C9.12932 22.0313 8.86449 22.1481 8.67735 22.1481C8.48872 22.1481 8.22501 22.0313 8.22501 21.5654ZM7.877 21.5654C7.877 22.3467 8.4566 22.443 8.67735 22.443C8.89711 22.443 9.47683 22.3468 9.47683 21.5654C9.47683 20.7839 8.89711 20.6889 8.67735 20.6889C8.4566 20.6889 7.877 20.7841 7.877 21.5654ZM10.4239 21.4656V21.0196H10.857C11.0612 21.0196 11.1003 21.1502 11.1003 21.2383C11.1003 21.4031 11.0125 21.4656 10.8315 21.4656H10.4239ZM10.0819 22.3986H10.4239V21.7466H10.7827C11.0404 21.7466 11.0546 21.8344 11.0546 22.0618C11.0546 22.233 11.0677 22.3188 11.091 22.3986H11.4763V22.3536C11.4021 22.3261 11.4021 22.2656 11.4021 22.0229C11.4021 21.7112 11.3279 21.6606 11.1912 21.6001C11.3558 21.5449 11.4482 21.3868 11.4482 21.2039C11.4482 21.0597 11.3675 20.7329 10.9244 20.7329H10.0818V22.3986H10.0819ZM12.7445 22.3986H12.3967V21.0275H11.8937V20.7328H13.2481V21.0275H12.7445V22.3986ZM15.1151 21.8156C15.1151 22.2539 14.8508 22.443 14.4306 22.443C14.2783 22.443 14.0509 22.4043 13.9022 22.24C13.8116 22.1384 13.7769 22.0036 13.7728 21.8368V20.7328H14.1271V21.8133C14.1271 22.0452 14.2619 22.1481 14.4241 22.1481C14.6629 22.1481 14.7602 22.0313 14.7602 21.8297V20.7326H15.1153V21.8156H15.1151ZM16.7986 20.7328H17.124V22.3986H16.7753L16.0956 21.2104H16.0919V22.3986H15.7666V20.7328H16.133L16.7945 21.8922H16.7986V20.7328ZM18.1055 22.3986H17.7565V20.7328H18.1055V22.3986ZM19.4636 22.3986H19.1159V21.0275H18.6135V20.7328H19.9673V21.0275H19.4636V22.3986ZM21.2825 22.3986H20.934V21.7697L20.3594 20.7328H20.7696L21.1151 21.4567L21.4453 20.7328H21.839L21.2825 21.7738V22.3986ZM11.9166 0.852539L0.703125 6.37542V8.9697H1.95818V16.7518H21.7906V8.9697H23.2977V6.37542L11.9166 0.852539ZM19.3641 14.408H4.385V7.29592L11.9166 3.44682L19.3643 7.29592V14.408H19.3641Z" fill="#535E6B"/>
<path fill-rule="evenodd" clip-rule="evenodd" d="M15.3471 9.80577H8.40234V7.2959H15.3471V9.80577ZM15.3471 13.4056H8.40234V10.8941H15.3471V13.4056Z" fill="#535E6B"/>
</svg>
