<svg width="24" height="24" viewBox="0 0 24 24" fill="none" xmlns="http://www.w3.org/2000/svg">
<path d="M10.4016 4.69575C11.2841 4.69575 11.9995 3.98036 11.9995 3.09787C11.9995 2.21539 11.2841 1.5 10.4016 1.5C9.5191 1.5 8.80371 2.21539 8.80371 3.09787C8.80371 3.98036 9.5191 4.69575 10.4016 4.69575Z" fill="#535E6B"/>
<path d="M21.568 16.897L19.3207 17.4588L18.4217 13.2639C18.3668 13.0127 18.2279 12.7877 18.0279 12.626C17.828 12.4644 17.5789 12.3757 17.3217 12.3746H13.1637L12.8608 9.74962H17.9999V8.24962H12.6877L12.4939 6.57028C12.477 6.42351 12.4313 6.28152 12.3595 6.1524C12.2877 6.02329 12.1912 5.90959 12.0754 5.81778C11.9597 5.72598 11.827 5.65787 11.6849 5.61736C11.5428 5.57684 11.3942 5.5647 11.2474 5.58163L9.38477 5.79656L10.3171 13.8746H17.0188L18.1793 19.2904L21.932 18.3522L21.568 16.897Z" fill="#535E6B"/>
<path d="M10.5 20.9995C9.19585 20.9993 7.93228 20.5459 6.92547 19.717C5.91866 18.888 5.23118 17.735 4.98063 16.4552C4.73008 15.1753 4.93203 13.8481 5.55194 12.7007C6.17185 11.5533 7.17119 10.657 8.379 10.165L8.20186 8.62988C5.39733 9.58815 3.375 12.2495 3.375 15.3745C3.375 19.3032 6.57127 22.4995 10.5 22.4995C11.7261 22.4989 12.9313 22.182 13.9992 21.5794C15.067 20.9769 15.9614 20.1091 16.5958 19.0599L16.125 16.8745C15.375 19.1245 13.2469 20.9995 10.5 20.9995Z" fill="#535E6B"/>
</svg>
