<?xml version="1.0" encoding="utf-8"?>
<!-- Generator: Adobe Illustrator 23.0.2, SVG Export Plug-In . SVG Version: 6.00 Build 0)  -->
<svg version="1.1" id="Layer_1" xmlns="http://www.w3.org/2000/svg" xmlns:xlink="http://www.w3.org/1999/xlink" x="0px" y="0px"
	 viewBox="0 0 24 24" style="enable-background:new 0 0 24 24;" xml:space="preserve">
<style type="text/css">
	.st0{fill:none;stroke:#1BC47D;stroke-width:2;stroke-linecap:round;stroke-linejoin:round;}
</style>
<path class="st0" d="M22,16.9v3c0,0.3-0.1,0.6-0.2,0.8c-0.1,0.3-0.3,0.5-0.5,0.7c-0.2,0.2-0.4,0.3-0.7,0.4c-0.3,0.1-0.5,0.1-0.8,0.1
	c-3.1-0.3-6-1.4-8.6-3.1c-2.4-1.5-4.5-3.6-6-6c-1.7-2.6-2.7-5.6-3.1-8.7c0-0.3,0-0.6,0.1-0.8c0.1-0.3,0.2-0.5,0.4-0.7
	C2.8,2.4,3,2.3,3.3,2.2C3.6,2.1,3.8,2,4.1,2h3c0.5,0,1,0.2,1.3,0.5C8.8,2.8,9,3.2,9.1,3.7c0.1,1,0.4,1.9,0.7,2.8
	C9.9,6.9,10,7.3,9.9,7.7C9.8,8,9.6,8.4,9.4,8.6L8.1,9.9c1.4,2.5,3.5,4.6,6,6l1.3-1.3c0.3-0.3,0.6-0.5,1-0.5c0.4-0.1,0.8-0.1,1.1,0.1
	c0.9,0.3,1.9,0.6,2.8,0.7c0.5,0.1,0.9,0.3,1.2,0.7C21.8,16,22,16.4,22,16.9z"/>
</svg>
