<svg width="28" height="28" viewBox="0 0 28 28" fill="none" xmlns="http://www.w3.org/2000/svg">
<rect width="28" height="28" rx="14" fill="#FFF77D"/>
<rect x="0.5" y="0.5" width="27" height="27" rx="13.5" stroke="#F4A541" stroke-opacity="0.5"/>
<path d="M7.09552 18.1129C6.4355 18.1129 5.87992 17.9917 5.42877 17.7495C4.97763 17.5072 4.6142 17.1813 4.3385 16.772C4.0628 16.3626 3.86229 15.9073 3.73697 15.406C3.62001 14.9047 3.56152 14.3909 3.56152 13.8646C3.56152 12.8871 3.69937 12.0391 3.97508 11.3206C4.25078 10.5937 4.64762 10.034 5.1656 9.64132C5.68359 9.2403 6.31018 9.03979 7.04539 9.03979C7.64692 9.03979 8.15655 9.16094 8.57428 9.40322C9.00036 9.63715 9.33037 9.94627 9.5643 10.3306C9.79823 10.7149 9.93608 11.1284 9.97785 11.5712H8.48655C8.41136 11.1869 8.24845 10.8903 7.99781 10.6815C7.74717 10.4726 7.42552 10.3682 7.03286 10.3682C6.4731 10.3682 6.02195 10.6272 5.67941 11.1452C5.33687 11.6548 5.15307 12.4359 5.12801 13.4886C5.32852 13.1461 5.62928 12.862 6.0303 12.6364C6.43133 12.4109 6.8783 12.2981 7.37122 12.2981C7.85578 12.2981 8.31111 12.415 8.73719 12.649C9.16328 12.8829 9.50582 13.2129 9.76481 13.639C10.0322 14.0651 10.1658 14.5664 10.1658 15.1428C10.1658 15.6692 10.0363 16.1579 9.77734 16.6091C9.5267 17.0602 9.16745 17.4236 8.6996 17.6993C8.24009 17.975 7.7054 18.1129 7.09552 18.1129ZM7.00779 16.7344C7.47565 16.7344 7.85996 16.5923 8.16073 16.3083C8.46985 16.0159 8.62441 15.6483 8.62441 15.2055C8.62441 14.7376 8.46985 14.3617 8.16073 14.0776C7.85161 13.7936 7.45894 13.6515 6.98273 13.6515C6.67361 13.6515 6.39373 13.7225 6.14309 13.8646C5.90081 13.9982 5.70865 14.182 5.56663 14.416C5.4246 14.6415 5.35358 14.8964 5.35358 15.1804C5.35358 15.6316 5.50814 16.0033 5.81726 16.2958C6.13474 16.5882 6.53158 16.7344 7.00779 16.7344Z" fill="#464638"/>
<path d="M11.3701 17.9625V16.797C11.9048 16.3542 12.4227 15.9156 12.924 15.4812C13.4336 15.0467 13.8848 14.6165 14.2775 14.1904C14.6785 13.7643 14.996 13.3508 15.2299 12.9497C15.4722 12.5404 15.5933 12.1435 15.5933 11.7592C15.5933 11.4 15.4931 11.0825 15.2925 10.8068C15.1004 10.5311 14.7787 10.3932 14.3276 10.3932C13.8681 10.3932 13.5214 10.5436 13.2874 10.8444C13.0535 11.1452 12.9365 11.5086 12.9365 11.9347H11.3826C11.3993 11.2914 11.5413 10.7567 11.8087 10.3306C12.076 9.89614 12.4311 9.57449 12.8739 9.36562C13.3167 9.1484 13.8138 9.03979 14.3652 9.03979C15.2591 9.03979 15.9526 9.28625 16.4455 9.77918C16.9468 10.2637 17.1974 10.8945 17.1974 11.6715C17.1974 12.1561 17.0846 12.6281 16.859 13.0876C16.6418 13.5471 16.3536 13.9899 15.9943 14.416C15.6351 14.8421 15.2466 15.2431 14.8289 15.619C14.4111 15.9866 14.0059 16.3292 13.6133 16.6466H17.4104V17.9625H11.3701Z" fill="#464638"/>
<path d="M18.433 15.005V13.6641H20.7889V11.496H22.1549V13.6641H24.4984V15.005H22.1549V17.173H20.7889V15.005H18.433Z" fill="#464638"/>
</svg>
