<svg width="28" height="28" viewBox="0 0 28 28" fill="none" xmlns="http://www.w3.org/2000/svg">
<rect width="28" height="28" rx="14" fill="#E2368D"/>
<path d="M6.62595 17.9709C5.99776 17.9709 5.45524 17.8607 4.99837 17.6405C4.54966 17.4202 4.19478 17.1183 3.93371 16.7349C3.6808 16.3433 3.53396 15.9027 3.49316 15.4133H5.02285C5.09627 15.7641 5.27575 16.0578 5.56129 16.2943C5.84683 16.5228 6.20172 16.637 6.62595 16.637C7.08282 16.637 7.45402 16.4698 7.73956 16.1353C8.03326 15.8008 8.18011 15.3847 8.18011 14.887C8.18011 14.3731 8.03326 13.9652 7.73956 13.6633C7.45402 13.3614 7.09097 13.2105 6.65043 13.2105C6.2833 13.2105 5.96513 13.3003 5.6959 13.4797C5.42668 13.6592 5.23496 13.8836 5.12074 14.1528H3.61554L4.34979 9.25781H9.09792V10.6284H5.52458L5.13298 12.6109C5.31246 12.4151 5.55721 12.256 5.86723 12.1336C6.17724 12.0031 6.52397 11.9378 6.90741 11.9378C7.51929 11.9378 8.02918 12.0765 8.43709 12.3539C8.84501 12.6231 9.15502 12.9821 9.36714 13.4308C9.57926 13.8713 9.68531 14.3527 9.68531 14.8748C9.68531 15.4704 9.55478 16.0006 9.29372 16.4657C9.04081 16.9307 8.68184 17.2978 8.21682 17.567C7.75995 17.8363 7.22967 17.9709 6.62595 17.9709Z" fill="white"/>
<path d="M14.2146 17.9709C13.5864 17.9709 13.0439 17.8607 12.587 17.6405C12.1383 17.4202 11.7834 17.1183 11.5224 16.7349C11.2695 16.3433 11.1226 15.9027 11.0818 15.4133H12.6115C12.6849 15.7641 12.8644 16.0578 13.1499 16.2943C13.4355 16.5228 13.7904 16.637 14.2146 16.637C14.6715 16.637 15.0427 16.4698 15.3282 16.1353C15.6219 15.8008 15.7688 15.3847 15.7688 14.887C15.7688 14.3731 15.6219 13.9652 15.3282 13.6633C15.0427 13.3614 14.6796 13.2105 14.2391 13.2105C13.872 13.2105 13.5538 13.3003 13.2846 13.4797C13.0153 13.6592 12.8236 13.8836 12.7094 14.1528H11.2042L11.9384 9.25781H16.6866V10.6284H13.1132L12.7216 12.6109C12.9011 12.4151 13.1459 12.256 13.4559 12.1336C13.7659 12.0031 14.1126 11.9378 14.4961 11.9378C15.1079 11.9378 15.6178 12.0765 16.0257 12.3539C16.4337 12.6231 16.7437 12.9821 16.9558 13.4308C17.1679 13.8713 17.274 14.3527 17.274 14.8748C17.274 15.4704 17.1434 16.0006 16.8824 16.4657C16.6295 16.9307 16.2705 17.2978 15.8055 17.567C15.3486 17.8363 14.8183 17.9709 14.2146 17.9709Z" fill="white"/>
<path d="M18.5848 14.936V13.6266H20.8854V11.5095H22.2193V13.6266H24.5077V14.936H22.2193V17.0531H20.8854V14.936H18.5848Z" fill="white"/>
</svg>
