<svg width="24" height="24" viewBox="0 0 24 24" fill="none" xmlns="http://www.w3.org/2000/svg">
<path d="M23.2969 0C22.6235 0 1.37428 0 0.703125 0C0.314812 0 0 0.314812 0 0.703125C0 1.37653 0 22.6257 0 23.2969C0 23.6852 0.314812 24 0.703125 24C1.37653 24 22.6257 24 23.2969 24C23.6852 24 24 23.6852 24 23.2969V7.78125V0.703125C24 0.314812 23.6852 0 23.2969 0ZM1.40625 1.40625H7.07812C7.07812 1.84744 7.07812 15.0677 7.07812 15.5156H1.40625V1.40625ZM15.5156 22.5938H1.40625V16.9219C1.84744 16.9219 15.0677 16.9219 15.5156 16.9219V22.5938ZM15.5156 15.5156H8.48438V8.48438H15.5156V15.5156ZM22.5938 22.5938H16.9219C16.9219 22.1526 16.9219 8.93231 16.9219 8.48438H22.5938V22.5938ZM22.5938 7.07812C22.1526 7.07812 8.93231 7.07812 8.48438 7.07812V1.40625H22.5938V7.07812Z" fill="#9D56F7"/>
</svg>
