<svg width="24" height="24" viewBox="0 0 24 24" fill="none" xmlns="http://www.w3.org/2000/svg">
<g clip-path="url(#clip0_959_8413)">
<path d="M18.9003 5.88339C18.8767 5.58839 18.7801 5.30311 18.6173 5.05617C18.0394 4.1795 16.3688 2.09889 12.675 0.39225C12.207 0.175876 11.667 0.175876 11.1991 0.39225C7.50523 2.09889 5.83469 4.17957 5.25716 5.0562C5.09392 5.30311 4.9973 5.58839 4.9742 5.88342C4.53681 11.3962 4.51139 15.8692 4.89654 21.259C4.95663 22.101 5.60582 22.7839 6.44411 22.8819C10.1061 23.3091 13.768 23.3092 17.43 22.8819C18.2683 22.7839 18.9175 22.101 18.9776 21.259C19.3631 15.8692 19.3373 11.3962 18.9003 5.88339ZM11.937 5.42886C11.1746 5.42886 10.5564 4.81066 10.5564 4.04824C10.5564 3.28576 11.1746 2.6676 11.9371 2.6676C12.6995 2.6676 13.3177 3.2858 13.3177 4.04825C13.3177 4.81069 12.6995 5.42889 11.937 5.42886Z" fill="#1BC47D"/>
</g>
<path fill-rule="evenodd" clip-rule="evenodd" d="M12.0628 8.57129C12.4178 8.57129 12.7056 8.85911 12.7056 9.21415V19.6548C12.7056 20.0098 12.4178 20.2976 12.0628 20.2976C11.7077 20.2976 11.4199 20.0098 11.4199 19.6548V9.21415C11.4199 8.85911 11.7077 8.57129 12.0628 8.57129Z" fill="white"/>
<path fill-rule="evenodd" clip-rule="evenodd" d="M9.24705 11.1445C9.67911 10.7125 10.2651 10.4697 10.8761 10.4697H14.4354C14.7905 10.4697 15.0783 10.7575 15.0783 11.1126C15.0783 11.4676 14.7905 11.7554 14.4354 11.7554H10.8761C10.6061 11.7554 10.3471 11.8627 10.1562 12.0537C9.96525 12.2446 9.85798 12.5036 9.85798 12.7736C9.85798 13.0436 9.96525 13.3026 10.1562 13.4935C10.3471 13.6845 10.6061 13.7917 10.8761 13.7917H13.249C13.86 13.7917 14.446 14.0345 14.8781 14.4665C15.3101 14.8986 15.5529 15.4846 15.5529 16.0956C15.5529 16.7066 15.3101 17.2926 14.8781 17.7247C14.446 18.1568 13.86 18.3995 13.249 18.3995H9.21512C8.86008 18.3995 8.57227 18.1117 8.57227 17.7566C8.57227 17.4016 8.86008 17.1138 9.21512 17.1138H13.249C13.519 17.1138 13.778 17.0065 13.9689 16.8156C14.1599 16.6246 14.2672 16.3656 14.2672 16.0956C14.2672 15.8256 14.1599 15.5666 13.9689 15.3757C13.778 15.1847 13.519 15.0775 13.249 15.0775H10.8761C10.2651 15.0775 9.67911 14.8347 9.24705 14.4027C8.81499 13.9706 8.57227 13.3846 8.57227 12.7736C8.57227 12.1626 8.81499 11.5766 9.24705 11.1445Z" fill="white"/>
<defs>
<clipPath id="clip0_959_8413">
<rect width="24" height="24" fill="white"/>
</clipPath>
</defs>
</svg>
