<svg width="48" height="37" viewBox="0 0 48 37" fill="none" xmlns="http://www.w3.org/2000/svg">
<path d="M35.875 30.9426C35.875 31.2106 35.7671 31.4675 35.5751 31.657C35.383 31.8465 35.1225 31.9529 34.8509 31.9529H6.14909C5.87749 31.9529 5.61701 31.8465 5.42495 31.657C5.2329 31.4675 5.125 31.2106 5.125 30.9426V18.8188C5.12295 18.6753 5.15193 18.533 5.21001 18.4014C5.26809 18.2697 5.35393 18.1518 5.46182 18.0555L19.8082 5.31656C19.9964 5.1518 20.2393 5.06082 20.4909 5.06082C20.7425 5.06082 20.9854 5.1518 21.1736 5.31656L30.7864 13.8481L34.6142 10.449L24.6009 1.5582C23.4717 0.555083 22.0059 0 20.4863 0C18.9668 0 17.501 0.555083 16.3718 1.5582L10.209 7.03185V5.00224C10.209 4.73428 10.1011 4.47732 9.90909 4.28785C9.71704 4.09837 9.45655 3.99192 9.18495 3.99192H6.13544C5.86383 3.99192 5.60335 4.09837 5.4113 4.28785C5.21924 4.47732 5.11135 4.73428 5.11135 5.00224V11.5536L2.02088 14.2971C1.38329 14.8684 0.874072 15.5651 0.526011 16.3424C0.17795 17.1196 -0.00123398 17.9601 6.39599e-06 18.8099V30.9336C6.39599e-06 32.5425 0.647854 34.0855 1.80103 35.2232C2.95421 36.3609 4.51825 37 6.14909 37H34.8509C36.4818 37 38.0458 36.3609 39.199 35.2232C40.3522 34.0855 41 32.5425 41 30.9336V22.6086L35.875 27.1573V30.9426Z" fill="#3D3D3D"/>
<path d="M47.6634 9.36968L45.4027 7.26503C45.2184 7.09436 44.9799 7 44.7326 7C44.4853 7 44.2467 7.09436 44.0624 7.26503L28.4968 21.7709L20.9329 14.7215C20.7486 14.5508 20.51 14.4565 20.2627 14.4565C20.0154 14.4565 19.7768 14.5508 19.5925 14.7215L17.3319 16.8262C17.2274 16.9242 17.1438 17.0437 17.0867 17.1772C17.0295 17.3106 17 17.455 17 17.601C17 17.7469 17.0295 17.8913 17.0867 18.0247C17.1438 18.1582 17.2274 18.2778 17.3319 18.3758L27.0135 27.4096C27.4186 27.7895 27.9457 28 28.4923 28C29.0389 28 29.566 27.7895 29.9711 27.4096L47.6634 10.9239C47.7693 10.8262 47.854 10.7065 47.912 10.5726C47.97 10.4387 48 10.2936 48 10.1468C48 10 47.97 9.85489 47.912 9.72096C47.854 9.58703 47.7693 9.46732 47.6634 9.36968Z" fill="#3D3D3D"/>
</svg>
