<svg width="12" height="12" viewBox="0 0 12 12" fill="none" xmlns="http://www.w3.org/2000/svg">
<path d="M6 0C2.68608 0 0 2.68688 0 6.00032C0 9.31392 2.68608 12 6 12C9.31392 12 12 9.31392 12 6.00032C12 2.68688 9.31392 0 6 0ZM6.61216 9.3376C6.61216 9.4528 6.51872 9.54624 6.40352 9.54624H5.59648C5.48128 9.54624 5.38784 9.45296 5.38784 9.3376V5.46272C5.38784 5.34752 5.48128 5.25408 5.59648 5.25408H6.40352C6.51872 5.25408 6.61216 5.34736 6.61216 5.46272V9.3376ZM5.99504 4.38928C5.59984 4.38928 5.27216 4.0616 5.27216 3.65664C5.27203 3.56167 5.29065 3.46762 5.32693 3.37986C5.36321 3.2921 5.41645 3.21236 5.4836 3.14521C5.55076 3.07805 5.6305 3.02481 5.71826 2.98853C5.80602 2.95224 5.90007 2.93363 5.99504 2.93376C6.4 2.93376 6.72768 3.25168 6.72768 3.65664C6.72774 3.75287 6.70884 3.84817 6.67204 3.93708C6.63524 4.026 6.58128 4.10679 6.51324 4.17484C6.44519 4.24288 6.3644 4.29684 6.27548 4.33364C6.18657 4.37044 6.09127 4.38934 5.99504 4.38928Z" fill="#535E6B" fill-opacity="0.5"/>
</svg>
