<svg width="32" height="32" viewBox="0 0 32 32" fill="none" xmlns="http://www.w3.org/2000/svg">
<path d="M13.8694 6.261C15.0461 6.261 15.9999 5.30714 15.9999 4.1305C15.9999 2.95386 15.0461 2 13.8694 2C12.6928 2 11.7389 2.95386 11.7389 4.1305C11.7389 5.30714 12.6928 6.261 13.8694 6.261Z" fill="#535E6B"/>
<path d="M28.7575 22.5313L25.7611 23.2804L24.5625 17.6871C24.4893 17.3522 24.304 17.0522 24.0374 16.8367C23.7708 16.6211 23.4387 16.5029 23.0958 16.5014H17.5518L17.1479 13.0014H24V11.0014H16.9171L16.6588 8.76231C16.6362 8.56662 16.5753 8.3773 16.4795 8.20515C16.3838 8.033 16.2551 7.88139 16.1007 7.75899C15.9464 7.63658 15.7695 7.54578 15.58 7.49175C15.3906 7.43773 15.1924 7.42154 14.9967 7.44412L12.5132 7.73069L13.7563 18.5014H22.6919L24.2393 25.7225L29.2428 24.4716L28.7575 22.5313Z" fill="#535E6B"/>
<path d="M14 28C12.2611 27.9997 10.5764 27.3952 9.23396 26.29C7.89155 25.1847 6.9749 23.6473 6.64084 21.9408C6.30677 20.2344 6.57604 18.4648 7.40259 16.9349C8.22913 15.4051 9.56159 14.2099 11.172 13.554L10.9358 11.5071C7.19644 12.7848 4.5 16.3333 4.5 20.5C4.5 25.7383 8.76169 30 14 30C15.6348 29.9991 17.2418 29.5766 18.6656 28.7732C20.0894 27.9698 21.2818 26.8128 22.1278 25.4138L21.5 22.5C20.5 25.5 17.6625 28 14 28Z" fill="#535E6B"/>
</svg>
