<?xml version="1.0" encoding="utf-8"?>
<!-- Generator: Adobe Illustrator 23.0.2, SVG Export Plug-In . SVG Version: 6.00 Build 0)  -->
<svg version="1.1" id="Layer_1" xmlns="http://www.w3.org/2000/svg" xmlns:xlink="http://www.w3.org/1999/xlink" x="0px" y="0px"
	 viewBox="0 0 20 20" style="enable-background:new 0 0 20 20;" xml:space="preserve">
<style type="text/css">
	.st0{fill:#FFFFFF;}
</style>
<path class="st0" d="M18.3,14.1v2.5c0,0.2,0,0.5-0.1,0.7c-0.1,0.2-0.2,0.4-0.4,0.6c-0.2,0.2-0.4,0.3-0.6,0.4
	c-0.2,0.1-0.5,0.1-0.7,0.1c-2.6-0.3-5-1.2-7.2-2.6c-2-1.3-3.7-3-5-5C2.9,8.5,2,6.1,1.8,3.5c0-0.2,0-0.5,0.1-0.7
	C1.9,2.6,2,2.4,2.2,2.2C2.4,2,2.5,1.9,2.8,1.8C3,1.7,3.2,1.7,3.4,1.7h2.5c0.4,0,0.8,0.1,1.1,0.4c0.3,0.3,0.5,0.6,0.6,1
	c0.1,0.8,0.3,1.6,0.6,2.3c0.1,0.3,0.1,0.6,0.1,0.9C8.2,6.7,8,7,7.8,7.2L6.7,8.3c1.2,2.1,2.9,3.8,5,5l1.1-1.1
	c0.2-0.2,0.5-0.4,0.8-0.4c0.3-0.1,0.6,0,0.9,0.1c0.8,0.3,1.5,0.5,2.3,0.6c0.4,0.1,0.8,0.3,1,0.6C18.2,13.3,18.3,13.7,18.3,14.1z"/>
</svg>
