<svg width="18" height="18" viewBox="0 0 18 18" fill="none" xmlns="http://www.w3.org/2000/svg">
<g clip-path="url(#clip0_959_35403)">
<path d="M14.1747 4.41254C14.157 4.19129 14.0846 3.97733 13.9625 3.79213C13.529 3.13463 12.2761 1.57417 9.50576 0.29419C9.15479 0.131909 8.74979 0.131909 8.39882 0.294189C5.62844 1.57417 4.37553 3.13468 3.94239 3.79215C3.81995 3.97733 3.74749 4.19129 3.73016 4.41257C3.40212 8.54715 3.38305 11.9019 3.67192 15.9442C3.71699 16.5757 4.20388 17.0879 4.83259 17.1614C7.57907 17.4819 10.3255 17.4819 13.072 17.1614C13.7008 17.0879 14.1876 16.5758 14.2327 15.9443C14.5219 11.9019 14.5025 8.54715 14.1747 4.41254ZM8.95229 4.07165C8.38048 4.07165 7.91683 3.608 7.91683 3.03618C7.91683 2.46432 8.38045 2.0007 8.95232 2.0007C9.52418 2.0007 9.98778 2.46435 9.9878 3.03619C9.98778 3.60802 9.52413 4.07167 8.95229 4.07165Z" fill="#45BB30"/>
<path d="M3.94238 3.79207C3.82 3.97744 3.74753 4.19121 3.73013 4.41241C3.40192 8.54721 3.38322 11.9019 3.67176 15.9443C3.71683 16.5756 4.20405 17.088 4.83259 17.1615C4.88022 17.1671 4.92807 17.1725 4.97545 17.1778C4.65698 16.9592 4.4378 16.5624 4.41016 16.1041C4.16181 11.9713 4.17844 8.54187 4.4606 4.31486C4.47521 4.08879 4.53766 3.87013 4.64314 3.68067C4.94011 3.14456 5.68593 2.02137 7.18469 0.924584C5.24913 2.04954 4.30644 3.23957 3.94238 3.79207Z" fill="#2F991B"/>
<path d="M9.87274 3.95693C9.63681 4.19286 9.31103 4.33901 8.95176 4.33901C8.23323 4.33901 7.64869 3.75447 7.64869 3.03595C7.64869 2.68787 7.78425 2.36065 8.03038 2.11451C8.27649 1.86841 8.60368 1.73288 8.95179 1.73285C9.67032 1.73285 10.2549 2.31739 10.2549 3.03592C10.2548 3.39521 10.1087 3.72096 9.87274 3.95693ZM8.40879 2.49292C8.26374 2.63797 8.18386 2.83081 8.18386 3.03594C8.18384 3.45942 8.52834 3.80392 8.95179 3.80387C9.37529 3.80387 9.71971 3.45935 9.71969 3.03597C9.71971 2.61249 9.37521 2.26799 8.95176 2.26804C8.74665 2.26802 8.55382 2.34789 8.40879 2.49292Z" fill="#2F991B"/>
</g>
<path fill-rule="evenodd" clip-rule="evenodd" d="M9.05246 6.42871C9.31874 6.42871 9.5346 6.64457 9.5346 6.91085V14.7413C9.5346 15.0076 9.31874 15.2235 9.05246 15.2235C8.78618 15.2235 8.57031 15.0076 8.57031 14.7413V6.91085C8.57031 6.64457 8.78618 6.42871 9.05246 6.42871Z" fill="white"/>
<path fill-rule="evenodd" clip-rule="evenodd" d="M6.93578 8.35863C7.25982 8.03459 7.69932 7.85254 8.15759 7.85254H10.8271C11.0934 7.85254 11.3092 8.0684 11.3092 8.33468C11.3092 8.60096 11.0934 8.81682 10.8271 8.81682H8.15759C7.95507 8.81682 7.76084 8.89728 7.61763 9.04048C7.47443 9.18369 7.39397 9.37792 7.39397 9.58044C7.39397 9.78296 7.47443 9.97719 7.61763 10.1204C7.76084 10.2636 7.95507 10.3441 8.15759 10.3441H9.93724C10.3955 10.3441 10.835 10.5261 11.1591 10.8501C11.4831 11.1742 11.6651 11.6137 11.6651 12.072C11.6651 12.5302 11.4831 12.9697 11.1591 13.2938C10.835 13.6178 10.3955 13.7999 9.93724 13.7999H6.91183C6.64555 13.7999 6.42969 13.584 6.42969 13.3177C6.42969 13.0514 6.64555 12.8356 6.91183 12.8356H9.93724C10.1398 12.8356 10.334 12.7551 10.4772 12.6119C10.6204 12.4687 10.7009 12.2745 10.7009 12.072C10.7009 11.8694 10.6204 11.6752 10.4772 11.532C10.334 11.3888 10.1398 11.3083 9.93724 11.3083H8.15759C7.69932 11.3083 7.25982 11.1263 6.93578 10.8023C6.61173 10.4782 6.42969 10.0387 6.42969 9.58044C6.42969 9.12217 6.61173 8.68267 6.93578 8.35863Z" fill="white"/>
<defs>
<clipPath id="clip0_959_35403">
<rect width="18" height="18" fill="white"/>
</clipPath>
</defs>
</svg>
