<svg width="40" height="40" viewBox="0 0 40 40" fill="none" xmlns="http://www.w3.org/2000/svg">
<path d="M7.38274 38.0606H32.6166C34.6372 38.0606 36.2806 36.4171 36.2806 34.3966V16.4345C36.2806 15.6407 35.6371 14.9971 34.8431 14.9971C34.0492 14.9971 33.4056 15.6407 33.4056 16.4345V34.3966C33.4056 34.8315 33.0515 35.1856 32.6166 35.1856H7.38274C6.94786 35.1856 6.5937 34.8315 6.5937 34.3966V16.4345C6.5937 15.6407 5.95016 14.9971 5.15623 14.9971C4.36229 14.9971 3.71875 15.6407 3.71875 16.4345V34.3966C3.71875 36.4172 5.36223 38.0606 7.38274 38.0606Z" fill="#1BC47D" stroke="#1BC47D" stroke-width="0.5"/>
<path d="M38.8291 20.4199C39.3905 19.8585 39.3905 18.9484 38.8291 18.387L24.0608 3.61866C21.8219 1.37971 18.1793 1.37972 15.9404 3.61866L1.17205 18.387C0.610618 18.9484 0.610618 19.8586 1.17205 20.4199C1.7334 20.9813 2.64358 20.9813 3.20492 20.4199L17.9732 5.6516C19.091 4.53385 20.9102 4.53386 22.0279 5.6516L22.2032 5.47631L22.0279 5.6516L36.7963 20.4198C36.7963 20.4198 36.7963 20.4198 36.7963 20.4199C37.0769 20.7005 37.4452 20.8409 37.8127 20.8409C38.1802 20.8409 38.5485 20.7006 38.8291 20.4199ZM38.8291 20.4199L38.6523 20.2431L38.8291 20.4198C38.8291 20.4198 38.8291 20.4198 38.8291 20.4199Z" fill="#1BC47D" stroke="#1BC47D" stroke-width="0.5"/>
<path d="M15.9 25.1895L15.9 25.1901C15.9107 27.0097 17.1145 28.5983 18.8652 29.1074V29.9474C18.8652 30.5821 19.3871 31.1 20.0242 31.1C20.6613 31.1 21.1832 30.5821 21.1832 29.9474V29.0961C23.3195 28.4523 24.5555 26.234 23.9434 24.0885C23.4439 22.3291 21.8263 21.1211 19.9924 21.1211C19.0087 21.1211 18.2077 20.3332 18.2074 19.3584C18.2177 18.371 19.01 17.5842 19.9924 17.5842C20.9756 17.5842 21.7775 18.3821 21.7775 19.3579C21.7775 19.9926 22.2994 20.5105 22.9365 20.5105C23.5736 20.5105 24.0955 19.9926 24.0955 19.3579C24.0955 17.5592 22.9128 15.9708 21.1832 15.4512V15.0526C21.1832 14.4179 20.6613 13.9 20.0242 13.9C19.3871 13.9 18.8652 14.4179 18.8652 15.0526V15.4292C16.7287 16.042 15.4613 18.2492 16.0411 20.3944C16.5189 22.1751 18.1365 23.4158 19.9924 23.4158C20.9763 23.4158 21.7775 24.2039 21.7775 25.1789C21.7775 26.1555 20.9855 26.9526 20.003 26.9526C19.0191 26.9526 18.218 26.1645 18.218 25.1895C18.218 24.5547 17.6961 24.0368 17.059 24.0368C16.4219 24.0368 15.9 24.5547 15.9 25.1895Z" fill="#1BC47D" stroke="#1BC47D" stroke-width="0.2"/>
</svg>
