<svg width="40" height="40" viewBox="0 0 40 40" fill="none" xmlns="http://www.w3.org/2000/svg">
<path d="M33.421 2H15.5261C13.5523 2 11.9471 3.61462 11.9471 5.60005V15.655L3.52394 24.1277C3.27375 24.3794 3.10338 24.7001 3.03436 25.0492C2.96535 25.3984 3.00079 25.7602 3.1362 26.0891C3.27161 26.4179 3.50091 26.699 3.79512 26.8968C4.08933 27.0946 4.43524 27.2002 4.78911 27.2003V36.2004C4.78911 36.6778 4.97765 37.1357 5.31324 37.4732C5.64884 37.8108 6.104 38.0005 6.57861 38.0005H35.2105C35.6851 38.0005 36.1403 37.8108 36.4759 37.4732C36.8115 37.1357 37 36.6778 37 36.2004V5.60005C37 3.61462 35.3948 2 33.421 2ZM19.1051 34.4004H8.3681V24.3455L13.7366 18.9454L19.1051 24.3455V34.4004ZM33.421 34.4004H22.6841V27.2003C23.0383 27.2011 23.3848 27.096 23.6796 26.8984C23.9743 26.7007 24.2041 26.4194 24.3396 26.0902C24.4752 25.761 24.5105 25.3987 24.441 25.0493C24.3714 24.6998 24.2003 24.3791 23.9492 24.1277L15.5261 15.655V5.60005H33.421V34.4004Z" fill="#1ABCFE"/>
<path d="M19.1052 9.2002H22.6842V12.8002H19.1052V9.2002ZM26.2632 9.2002H29.8422V12.8002H26.2632V9.2002ZM26.2632 16.4561H29.8422V20.0003H26.2632V16.4561ZM26.2632 23.6004H29.8422V27.2004H26.2632V23.6004ZM11.9473 25.4004H15.5263V29.0004H11.9473V25.4004Z" fill="#1ABCFE"/>
</svg>
