<svg width="40" height="40" viewBox="0 0 40 40" fill="none" xmlns="http://www.w3.org/2000/svg">
<path d="M19.6341 15.3679C19.1466 14.8804 18.3541 14.8779 17.8641 15.3654L13.7491 19.4829L12.1341 17.8654C11.6466 17.3779 10.8541 17.3779 10.3666 17.8654C9.8791 18.3529 9.8791 19.1454 10.3666 19.6329L12.8666 22.1329C13.1091 22.3779 13.4291 22.5004 13.7491 22.5004C14.0691 22.5004 14.3891 22.3779 14.6341 22.1354L19.6341 17.1354C20.1216 16.6479 20.1216 15.8554 19.6341 15.3679Z" fill="#9D56F7"/>
<path d="M19.6341 25.3679C19.1466 24.8804 18.3541 24.8779 17.8641 25.3654L13.7491 29.4828L12.1341 27.8678C11.6466 27.3803 10.8541 27.3803 10.3666 27.8678C9.8791 28.3553 9.8791 29.1478 10.3666 29.6353L12.8666 32.1353C13.1091 32.3778 13.4291 32.5003 13.7491 32.5003C14.0691 32.5003 14.3891 32.3778 14.6341 32.1353L19.6341 27.1353C20.1216 26.6479 20.1216 25.8554 19.6341 25.3679Z" fill="#9D56F7"/>
<path d="M28.75 17.5H23.75C23.06 17.5 22.5 18.06 22.5 18.75C22.5 19.44 23.06 20 23.75 20H28.75C29.44 20 30 19.44 30 18.75C30 18.06 29.44 17.5 28.75 17.5Z" fill="#9D56F7"/>
<path d="M28.75 27.5H23.75C23.06 27.5 22.5 28.06 22.5 28.75C22.5 29.44 23.06 30 23.75 30H28.75C29.44 30 30 29.44 30 28.75C30 28.06 29.44 27.5 28.75 27.5Z" fill="#9D56F7"/>
<path d="M32.5 5H27.5V3.75C27.5 3.06 26.94 2.5 26.25 2.5H23.5375C23.02 1.045 21.63 0 20 0C18.37 0 16.98 1.045 16.4625 2.5H13.75C13.06 2.5 12.5 3.06 12.5 3.75V5H7.5C6.1225 5 5 6.1225 5 7.5V37.5C5 38.8775 6.1225 40 7.5 40H32.5C33.8775 40 35 38.8775 35 37.5V7.5C35 6.1225 33.8775 5 32.5 5ZM15 5H17.5C18.19 5 18.75 4.44 18.75 3.75C18.75 3.06 19.31 2.5 20 2.5C20.69 2.5 21.25 3.06 21.25 3.75C21.25 4.44 21.81 5 22.5 5H25V7.5H15V5ZM32.5 37.5H7.5V7.5H12.5V8.75C12.5 9.44 13.06 10 13.75 10H26.25C26.94 10 27.5 9.44 27.5 8.75V7.5H32.5V37.5Z" fill="#9D56F7"/>
</svg>
