<svg width="40" height="40" viewBox="0 0 40 40" fill="none" xmlns="http://www.w3.org/2000/svg">
<path d="M13.3333 17.9333H12.3667C11.0475 17.8857 9.73263 18.1096 8.50363 18.5913C7.27462 19.0729 6.15772 19.802 5.22223 20.7333L4.95557 21.0444V30.2444H9.4889V25.0222L10.1 24.3333L10.3778 24.0111C11.8244 22.525 13.6253 21.4314 15.6111 20.8333C14.6169 20.0768 13.8328 19.0785 13.3333 17.9333Z" fill="#293A90"/>
<path d="M34.8222 20.7C33.8867 19.7687 32.7698 19.0396 31.5408 18.5579C30.3118 18.0763 28.9969 17.8523 27.6778 17.9C27.2732 17.9011 26.8689 17.9234 26.4667 17.9667C25.9579 19.041 25.1952 19.9753 24.2444 20.6889C26.3644 21.2754 28.2849 22.4277 29.8 24.0222L30.0778 24.3333L30.6778 25.0222V30.2556H35.0556V21.0111L34.8222 20.7Z" fill="#293A90"/>
<path d="M12.3333 15.7667H12.6778C12.5177 14.3925 12.7588 13.0014 13.372 11.7612C13.9852 10.5211 14.9442 9.48489 16.1333 8.77778C15.7023 8.11928 15.1076 7.58401 14.4076 7.22438C13.7075 6.86476 12.926 6.69311 12.1397 6.72625C11.3534 6.75939 10.5891 6.99617 9.92179 7.41342C9.25446 7.83067 8.70694 8.41407 8.33283 9.1065C7.95872 9.79893 7.77085 10.5766 7.78762 11.3635C7.80439 12.1504 8.02523 12.9194 8.4285 13.5952C8.83177 14.2711 9.40366 14.8306 10.0882 15.2191C10.7727 15.6075 11.5463 15.8115 12.3333 15.8111V15.7667Z" fill="#293A90"/>
<path d="M27.1445 14.9333C27.1579 15.1887 27.1579 15.4446 27.1445 15.7C27.3577 15.7338 27.573 15.7524 27.7889 15.7556H28C28.7836 15.7138 29.543 15.4698 30.2043 15.0474C30.8656 14.625 31.4062 14.0386 31.7736 13.3452C32.141 12.6519 32.3226 11.8752 32.3007 11.0908C32.2788 10.3064 32.0542 9.54109 31.6487 8.86928C31.2433 8.19748 30.6707 7.64211 29.9869 7.25725C29.3031 6.87239 28.5313 6.67115 27.7466 6.67313C26.9619 6.6751 26.1911 6.88022 25.5092 7.26852C24.8274 7.65681 24.2576 8.21505 23.8556 8.88889C24.8612 9.54548 25.6881 10.4414 26.2622 11.4964C26.8362 12.5514 27.1393 13.7323 27.1445 14.9333Z" fill="#293A90"/>
<path d="M19.8556 19.9111C22.5986 19.9111 24.8222 17.6875 24.8222 14.9444C24.8222 12.2014 22.5986 9.97778 19.8556 9.97778C17.1125 9.97778 14.8889 12.2014 14.8889 14.9444C14.8889 17.6875 17.1125 19.9111 19.8556 19.9111Z" fill="#1BC47D"/>
<path d="M20.1222 22.5556C18.6712 22.497 17.2233 22.7325 15.8656 23.2481C14.508 23.7637 13.2686 24.5486 12.2222 25.5556L11.9445 25.8667V32.9C11.9488 33.1291 11.9982 33.3551 12.0899 33.5651C12.1816 33.7751 12.3138 33.9649 12.4789 34.1238C12.644 34.2827 12.8387 34.4076 13.0521 34.4912C13.2654 34.5748 13.4931 34.6155 13.7222 34.6111H26.4889C26.718 34.6155 26.9457 34.5748 27.1591 34.4912C27.3724 34.4076 27.5672 34.2827 27.7323 34.1238C27.8974 33.9649 28.0295 33.7751 28.1212 33.5651C28.2129 33.3551 28.2623 33.1291 28.2667 32.9V25.8889L28 25.5556C26.9604 24.5455 25.7254 23.7584 24.3708 23.2425C23.0161 22.7266 21.5704 22.4929 20.1222 22.5556Z" fill="#1BC47D"/>
</svg>
