<svg width="16" height="16" viewBox="0 0 16 16" fill="none" xmlns="http://www.w3.org/2000/svg">
<path fill-rule="evenodd" clip-rule="evenodd" d="M12 2.08325C11.3096 2.08325 10.75 2.6429 10.75 3.33325C10.75 3.54914 10.8047 3.75225 10.9011 3.92946C10.908 3.94004 10.9147 3.95085 10.9211 3.96188C10.9275 3.97285 10.9336 3.98391 10.9394 3.99505C11.1602 4.34829 11.5527 4.58325 12 4.58325C12.6904 4.58325 13.25 4.02361 13.25 3.33325C13.25 2.6429 12.6904 2.08325 12 2.08325ZM10.0923 5.31394C10.5868 5.79031 11.2592 6.08325 12 6.08325C13.5188 6.08325 14.75 4.85204 14.75 3.33325C14.75 1.81447 13.5188 0.583252 12 0.583252C10.4812 0.583252 9.25 1.81447 9.25 3.33325C9.25 3.56984 9.27988 3.79945 9.33606 4.01851L5.90771 6.01921C5.41324 5.54285 4.74083 5.24991 4 5.24991C2.48122 5.24991 1.25 6.48113 1.25 7.99991C1.25 9.51869 2.48122 10.7499 4 10.7499C4.74099 10.7499 5.41353 10.4568 5.90803 9.98029L9.33683 11.9783C9.28015 12.1983 9.25 12.4289 9.25 12.6666C9.25 14.1853 10.4812 15.4166 12 15.4166C13.5188 15.4166 14.75 14.1853 14.75 12.6666C14.75 11.1478 13.5188 9.91656 12 9.91656C11.2603 9.91656 10.5888 10.2086 10.0945 10.6837L6.66405 8.68475C6.72016 8.46581 6.75 8.23634 6.75 7.99991C6.75 7.76332 6.72012 7.53371 6.66394 7.31464L10.0923 5.31394ZM5.0607 7.33822C5.06646 7.34932 5.07253 7.36034 5.0789 7.37126C5.08532 7.38225 5.09196 7.39301 5.09884 7.40354C5.19524 7.58079 5.25 7.78395 5.25 7.99991C5.25 8.21581 5.19526 8.41893 5.09891 8.59615C5.09192 8.60685 5.08517 8.61779 5.07866 8.62895C5.07236 8.63977 5.06636 8.65068 5.06065 8.66168C4.83978 9.01493 4.44733 9.24991 4 9.24991C3.30964 9.24991 2.75 8.69026 2.75 7.99991C2.75 7.30955 3.30964 6.74991 4 6.74991C4.44737 6.74991 4.83984 6.98492 5.0607 7.33822ZM10.75 12.6666C10.75 12.4659 10.7973 12.2763 10.8813 12.1083C10.898 12.0858 10.9136 12.0622 10.928 12.0375C10.9418 12.0139 10.9541 11.9898 10.965 11.9654C11.1899 11.6342 11.5695 11.4166 12 11.4166C12.6904 11.4166 13.25 11.9762 13.25 12.6666C13.25 13.3569 12.6904 13.9166 12 13.9166C11.3096 13.9166 10.75 13.3569 10.75 12.6666Z" fill="#345EA8"/>
</svg>
