<svg width="24" height="24" viewBox="0 0 24 24" fill="none" xmlns="http://www.w3.org/2000/svg">
<path d="M13.8757 4C12.3314 4 10.9225 4.82294 10.1573 6.13363C7.76219 6.14663 5.81763 8.09888 5.81763 10.497C5.81763 10.8986 6.14325 11.2242 6.54491 11.2242H13.8176C14.2193 11.2242 14.5449 10.8986 14.5449 10.497C14.5449 8.63844 13.3768 7.04784 11.7365 6.42003C12.2687 5.81653 13.0424 5.45456 13.8757 5.45456C15.4478 5.45456 16.7267 6.73384 16.7267 8.30628V19.2727C16.7267 19.6744 17.0523 20 17.454 20C17.8557 20 18.1813 19.6744 18.1813 19.2727V8.30628C18.1812 5.93178 16.2498 4 13.8757 4Z" fill="#283646" fill-opacity="0.8"/>
<path d="M7.27355 16.5579C6.87189 16.5579 6.54626 16.8835 6.54626 17.2851V18.2548C6.54626 18.6565 6.87189 18.9821 7.27355 18.9821C7.6752 18.9821 8.00083 18.6565 8.00083 18.2548V17.2851C8.00083 16.8835 7.6752 16.5579 7.27355 16.5579Z" fill="#283646" fill-opacity="0.8"/>
<path d="M10.1819 16.5579C9.78021 16.5579 9.45459 16.8835 9.45459 17.2851V18.2548C9.45459 18.6565 9.78021 18.9821 10.1819 18.9821C10.5835 18.9821 10.9092 18.6565 10.9092 18.2548V17.2851C10.9092 16.8835 10.5835 16.5579 10.1819 16.5579Z" fill="#283646" fill-opacity="0.8"/>
<path d="M13.0902 16.5579C12.6885 16.5579 12.3629 16.8835 12.3629 17.2851V18.2548C12.3629 18.6565 12.6885 18.9821 13.0902 18.9821C13.4919 18.9821 13.8175 18.6565 13.8175 18.2548V17.2851C13.8175 16.8835 13.4919 16.5579 13.0902 16.5579Z" fill="#283646" fill-opacity="0.8"/>
<path d="M7.27355 12.6792C6.87189 12.6792 6.54626 13.0048 6.54626 13.4065V14.3762C6.54626 14.7778 6.87189 15.1034 7.27355 15.1034C7.6752 15.1034 8.00083 14.7778 8.00083 14.3762V13.4065C8.00083 13.0048 7.6752 12.6792 7.27355 12.6792Z" fill="#283646" fill-opacity="0.8"/>
<path d="M10.1819 12.6792C9.78021 12.6792 9.45459 13.0048 9.45459 13.4065V14.3762C9.45459 14.7778 9.78021 15.1034 10.1819 15.1034C10.5835 15.1034 10.9092 14.7778 10.9092 14.3762V13.4065C10.9092 13.0048 10.5835 12.6792 10.1819 12.6792Z" fill="#283646" fill-opacity="0.8"/>
<path d="M13.0902 12.6792C12.6885 12.6792 12.3629 13.0048 12.3629 13.4065V14.3762C12.3629 14.7778 12.6885 15.1034 13.0902 15.1034C13.4919 15.1034 13.8175 14.7778 13.8175 14.3762V13.4065C13.8175 13.0048 13.4919 12.6792 13.0902 12.6792Z" fill="#283646" fill-opacity="0.8"/>
</svg>
