<svg width="40" height="40" viewBox="0 0 40 40" fill="none" xmlns="http://www.w3.org/2000/svg">
<path d="M35 30.3333H5.00001C4.99774 28.2226 5.44207 26.1352 6.30381 24.2084C7.16555 22.2815 8.4252 20.5588 10 19.1533V13C10 10.3478 11.0536 7.8043 12.9289 5.92893C14.8043 4.05357 17.3478 3 20 3C22.6522 3 25.1957 4.05357 27.0711 5.92893C28.9464 7.8043 30 10.3478 30 13V19.1533C31.5748 20.5588 32.8345 22.2815 33.6962 24.2084C34.5579 26.1352 35.0023 28.2226 35 30.3333Z" fill="#293A90"/>
<path d="M24.7167 32H15.2834C15.6277 32.9759 16.2663 33.8209 17.111 34.4187C17.9558 35.0164 18.9652 35.3374 20 35.3374C21.0349 35.3374 22.0443 35.0164 22.889 34.4187C23.7338 33.8209 24.3724 32.9759 24.7167 32Z" fill="#1BC47D"/>
</svg>
