<svg width="40" height="40" viewBox="0 0 40 40" fill="none" xmlns="http://www.w3.org/2000/svg">
<path d="M28.7835 29.416C28.7835 29.6188 28.7029 29.8133 28.5595 29.9567C28.4161 30.1 28.2217 30.1806 28.0189 30.1806H6.59077C6.388 30.1806 6.19353 30.1 6.05015 29.9567C5.90676 29.8133 5.82621 29.6188 5.82621 29.416V20.2413C5.82468 20.1327 5.84632 20.025 5.88967 19.9253C5.93303 19.8257 5.99712 19.7365 6.07767 19.6636L16.7883 10.0233C16.9288 9.89866 17.1102 9.82981 17.298 9.82981C17.4859 9.82981 17.6672 9.89866 17.8077 10.0233L24.9844 16.4796L27.8422 13.9073L20.3665 7.17918C19.5234 6.42006 18.4291 6 17.2946 6C16.1602 6 15.0659 6.42006 14.2228 7.17918L9.62183 11.3214V9.78548C9.62183 9.5827 9.54129 9.38824 9.3979 9.24486C9.25452 9.10147 9.06005 9.02091 8.85727 9.02091H6.58058C6.3778 9.02091 6.18333 9.10147 6.03995 9.24486C5.89657 9.38824 5.81602 9.5827 5.81602 9.78548V14.7432L3.50874 16.8194C3.03273 17.2518 2.65256 17.779 2.39271 18.3672C2.13285 18.9554 1.99908 19.5915 2 20.2345V29.4092C2 30.6268 2.48367 31.7945 3.34461 32.6554C4.20555 33.5163 5.37322 34 6.59077 34H28.0189C29.2364 34 30.4041 33.5163 31.2651 32.6554C32.126 31.7945 32.6097 30.6268 32.6097 29.4092V23.1092L28.7835 26.5515V29.416Z" fill="#2A3B8E"/>
<path d="M38.1519 12.8676L36.4325 11.3215C36.2923 11.1961 36.1108 11.1268 35.9228 11.1268C35.7347 11.1268 35.5532 11.1961 35.413 11.3215L23.5742 21.9778L17.8213 16.7991C17.6812 16.6738 17.4997 16.6044 17.3116 16.6044C17.1236 16.6044 16.9421 16.6738 16.8019 16.7991L15.0825 18.3452C15.003 18.4172 14.9395 18.5051 14.896 18.6031C14.8526 18.7011 14.8301 18.8072 14.8301 18.9144C14.8301 19.0217 14.8526 19.1277 14.896 19.2257C14.9395 19.3238 15.003 19.4116 15.0825 19.4836L22.4461 26.12C22.7542 26.3991 23.1551 26.5537 23.5708 26.5537C23.9866 26.5537 24.3875 26.3991 24.6956 26.12L38.1519 14.0093C38.2324 13.9376 38.2968 13.8497 38.3409 13.7513C38.385 13.6529 38.4079 13.5463 38.4079 13.4385C38.4079 13.3306 38.385 13.224 38.3409 13.1256C38.2968 13.0273 38.2324 12.9393 38.1519 12.8676Z" fill="#41B475"/>
</svg>
