<?xml version="1.0" encoding="utf-8"?>
<!-- Generator: Adobe Illustrator 23.0.2, SVG Export Plug-In . SVG Version: 6.00 Build 0)  -->
<svg version="1.1" id="Layer_1" xmlns="http://www.w3.org/2000/svg" xmlns:xlink="http://www.w3.org/1999/xlink" x="0px" y="0px"
	 viewBox="0 0 28 27" style="enable-background:new 0 0 28 27;" xml:space="preserve">
<style type="text/css">
	.st0{fill:#DEDEDE;}
</style>
<g>
	<path class="st0" d="M13.4,2.1c0.2-0.5,0.9-0.5,1.2,0l3.3,6.7C18,9,18.2,9.1,18.4,9.1l7.4,1.1c0.5,0.1,0.8,0.7,0.4,1.1l-5.4,5.2
		c-0.2,0.2-0.2,0.4-0.2,0.6l1.3,7.4c0.1,0.5-0.5,0.9-1,0.7l-6.6-3.5c-0.2-0.1-0.4-0.1-0.6,0l-6.6,3.5c-0.5,0.3-1-0.2-1-0.7l1.3-7.4
		c0-0.2,0-0.4-0.2-0.6l-5.4-5.2c-0.4-0.4-0.2-1,0.4-1.1l7.4-1.1c0.2,0,0.4-0.2,0.5-0.4L13.4,2.1z"/>
</g>
</svg>
