<?xml version="1.0" encoding="utf-8"?>
<!-- Generator: Adobe Illustrator 23.0.2, SVG Export Plug-In . SVG Version: 6.00 Build 0)  -->
<svg version="1.1" id="Layer_1" xmlns="http://www.w3.org/2000/svg" xmlns:xlink="http://www.w3.org/1999/xlink" x="0px" y="0px"
	 viewBox="0 0 24 24" style="enable-background:new 0 0 24 24;" xml:space="preserve">
<style type="text/css">
	.st0{fill:#9D56F7;}
</style>
<path class="st0" d="M23.3,9.9c0.4,0,0.7-0.3,0.7-0.7V4.5c0-0.4-0.3-0.7-0.7-0.7H0.7C0.3,3.8,0,4.2,0,4.5v4.7c0,0.4,0.3,0.7,0.7,0.7
	c1.1,0,2.1,0.9,2.1,2.1c0,1.1-0.9,2.1-2.1,2.1c-0.4,0-0.7,0.3-0.7,0.7v4.7c0,0.4,0.3,0.7,0.7,0.7h22.6c0.4,0,0.7-0.3,0.7-0.7v-4.7
	c0-0.4-0.3-0.7-0.7-0.7c-1.1,0-2.1-0.9-2.1-2.1C21.2,10.9,22.2,9.9,23.3,9.9z M22.6,15.4v3.4H8.1v-2.1c0-0.4-0.3-0.7-0.7-0.7
	c-0.4,0-0.7,0.3-0.7,0.7v2.1H1.4v-3.4C3,15.1,4.2,13.7,4.2,12S3,8.9,1.4,8.6V5.2h5.3v7.1C6.7,12.7,7,13,7.4,13
	c0.4,0,0.7-0.3,0.7-0.7V5.2h14.5v3.4c-1.6,0.3-2.8,1.7-2.8,3.4S21,15.1,22.6,15.4z"/>
</svg>
