<?xml version="1.0" encoding="utf-8"?>
<!-- Generator: Adobe Illustrator 23.0.2, SVG Export Plug-In . SVG Version: 6.00 Build 0)  -->
<svg version="1.1" id="Layer_1" xmlns="http://www.w3.org/2000/svg" xmlns:xlink="http://www.w3.org/1999/xlink" x="0px" y="0px"
	 viewBox="0 0 24 24" style="enable-background:new 0 0 24 24;" xml:space="preserve">
<style type="text/css">
	.st0{clip-path:url(#SVGID_2_);}
	.st1{fill:#9D56F7;}
</style>
<g>
	<defs>
		<rect id="SVGID_1_" width="24" height="24"/>
	</defs>
	<clipPath id="SVGID_2_">
		<use xlink:href="#SVGID_1_"  style="overflow:visible;"/>
	</clipPath>
	<g class="st0">
		<path class="st1" d="M14,9.1l8.8,1.7c0.7,0.1,1.2,0.8,1.2,1.5v10.2c0,0.8-0.7,1.5-1.5,1.5h-9c0.3,0,0.5-0.2,0.5-0.5V23h8.5
			c0.3,0,0.5-0.2,0.5-0.5V12.3c0-0.2-0.2-0.4-0.4-0.5L14,10.1V9.1z"/>
		<path class="st1" d="M19.5,14c0.3,0,0.5,0.2,0.5,0.5S19.8,15,19.5,15h-2c-0.3,0-0.5-0.2-0.5-0.5s0.2-0.5,0.5-0.5H19.5z"/>
		<path class="st1" d="M19.5,17c0.3,0,0.5,0.2,0.5,0.5S19.8,18,19.5,18h-2c-0.3,0-0.5-0.2-0.5-0.5s0.2-0.5,0.5-0.5H19.5z"/>
		<path class="st1" d="M19.5,20c0.3,0,0.5,0.2,0.5,0.5S19.8,21,19.5,21h-2c-0.3,0-0.5-0.2-0.5-0.5s0.2-0.5,0.5-0.5H19.5z"/>
		<path class="st1" d="M14,23.5c0,0.3-0.2,0.5-0.5,0.5c-0.3,0-0.5-0.2-0.5-0.5V23V9.5c0-0.2,0.1-0.3,0.2-0.4C13.3,9,13.5,9,13.6,9
			L14,9.1v1V23V23.5z"/>
		<path class="st1" d="M13,23v0.5c0,0.3,0.2,0.5,0.5,0.5h-4c0.3,0,0.5-0.2,0.5-0.5V23H13z"/>
		<path class="st1" d="M10.5,5C10.8,5,11,5.2,11,5.5S10.8,6,10.5,6h-2C8.2,6,8,5.8,8,5.5S8.2,5,8.5,5H10.5z"/>
		<path class="st1" d="M11,8.5C11,8.8,10.8,9,10.5,9h-2C8.2,9,8,8.8,8,8.5S8.2,8,8.5,8h2C10.8,8,11,8.2,11,8.5z"/>
		<path class="st1" d="M10.5,11c0.3,0,0.5,0.2,0.5,0.5S10.8,12,10.5,12h-2C8.2,12,8,11.8,8,11.5S8.2,11,8.5,11H10.5z"/>
		<path class="st1" d="M10.5,14c0.3,0,0.5,0.2,0.5,0.5S10.8,15,10.5,15h-2C8.2,15,8,14.8,8,14.5S8.2,14,8.5,14H10.5z"/>
		<path class="st1" d="M6,14.5C6,14.8,5.8,15,5.5,15h-2C3.2,15,3,14.8,3,14.5S3.2,14,3.5,14h2C5.8,14,6,14.2,6,14.5z"/>
		<path class="st1" d="M5.5,5C5.8,5,6,5.2,6,5.5S5.8,6,5.5,6h-2C3.2,6,3,5.8,3,5.5S3.2,5,3.5,5H5.5z"/>
		<path class="st1" d="M5.5,8C5.8,8,6,8.2,6,8.5S5.8,9,5.5,9h-2C3.2,9,3,8.8,3,8.5S3.2,8,3.5,8H5.5z"/>
		<path class="st1" d="M5.5,11C5.8,11,6,11.2,6,11.5S5.8,12,5.5,12h-2C3.2,12,3,11.8,3,11.5S3.2,11,3.5,11H5.5z"/>
		<path class="st1" d="M9,18.5C9,18.2,8.8,18,8.5,18h-3C5.2,18,5,18.2,5,18.5V23H4v-4.5C4,17.7,4.7,17,5.5,17h3
			c0.8,0,1.5,0.7,1.5,1.5V23H9V18.5z"/>
		<path class="st1" d="M5,23h4h1v0.5c0,0.3-0.2,0.5-0.5,0.5h-5C4.2,24,4,23.8,4,23.5V23H5z"/>
		<path class="st1" d="M1.8,0.2l11,1.7C13.5,2,14,2.6,14,3.4v5.7L13.6,9c-0.2,0-0.3,0-0.4,0.1C13.1,9.2,13,9.4,13,9.5V3.4
			c0-0.3-0.2-0.5-0.4-0.5l-11-1.7c0,0-0.1,0-0.1,0c-0.1,0-0.2,0-0.3,0.1C1.1,1.4,1,1.5,1,1.7v20.8C1,22.8,1.2,23,1.5,23H4v0.5
			C4,23.8,4.2,24,4.5,24h-3C0.7,24,0,23.3,0,22.5V1.7c0-0.4,0.2-0.9,0.5-1.1C0.9,0.3,1.3,0.1,1.8,0.2z"/>
	</g>
</g>
</svg>
