<?xml version="1.0" encoding="utf-8"?>
<!-- Generator: Adobe Illustrator 23.0.2, SVG Export Plug-In . SVG Version: 6.00 Build 0)  -->
<svg version="1.1" id="Layer_1" xmlns="http://www.w3.org/2000/svg" xmlns:xlink="http://www.w3.org/1999/xlink" x="0px" y="0px"
	 viewBox="0 0 24 24" style="enable-background:new 0 0 24 24;" xml:space="preserve">
<style type="text/css">
	.st0{fill:#9D56F7;}
</style>
<path class="st0" d="M23.3,0C22.6,0,1.4,0,0.7,0C0.3,0,0,0.3,0,0.7c0,0.7,0,21.9,0,22.6C0,23.7,0.3,24,0.7,24c0.7,0,21.9,0,22.6,0
	c0.4,0,0.7-0.3,0.7-0.7V7.8V0.7C24,0.3,23.7,0,23.3,0z M1.4,1.4h5.7c0,0.4,0,13.7,0,14.1H1.4V1.4z M15.5,22.6H1.4v-5.7
	c0.4,0,13.7,0,14.1,0V22.6z M15.5,15.5h-7v-7h7V15.5z M22.6,22.6h-5.7c0-0.4,0-13.7,0-14.1h5.7V22.6z M22.6,7.1
	c-0.4,0-13.7,0-14.1,0V1.4h14.1V7.1z"/>
</svg>
