<?xml version="1.0" encoding="utf-8"?>
<!-- Generator: Adobe Illustrator 23.0.2, SVG Export Plug-In . SVG Version: 6.00 Build 0)  -->
<svg version="1.1" id="Layer_1" xmlns="http://www.w3.org/2000/svg" xmlns:xlink="http://www.w3.org/1999/xlink" x="0px" y="0px"
	 viewBox="0 0 24 24" style="enable-background:new 0 0 24 24;" xml:space="preserve">
<style type="text/css">
	.st0{fill:none;stroke:#9D56F7;stroke-width:1.5;stroke-linecap:round;stroke-linejoin:round;}
	
		.st1{opacity:0.7;fill:none;stroke:#9D56F7;stroke-width:1.5;stroke-linecap:round;stroke-linejoin:round;enable-background:new    ;}
</style>
<path class="st0" d="M17,21v-2c0-1.1-0.4-2.1-1.2-2.8C15.1,15.4,14.1,15,13,15H5c-1.1,0-2.1,0.4-2.8,1.2C1.4,16.9,1,17.9,1,19v2"/>
<path class="st0" d="M9,11c2.2,0,4-1.8,4-4s-1.8-4-4-4C6.8,3,5,4.8,5,7S6.8,11,9,11z"/>
<path class="st1" d="M23,21v-2c0-0.9-0.3-1.7-0.8-2.4s-1.3-1.2-2.2-1.4"/>
<path class="st1" d="M16,3.1c0.9,0.2,1.6,0.7,2.2,1.4C18.7,5.3,19,6.1,19,7s-0.3,1.8-0.8,2.5c-0.5,0.7-1.3,1.2-2.2,1.4"/>
</svg>
