<svg width="21" height="21" viewBox="0 0 21 21" fill="none" xmlns="http://www.w3.org/2000/svg">
<path d="M3.5 14C3.5 14.77 3.84125 15.4612 4.375 15.9425V17.5C4.375 17.9813 4.76875 18.375 5.25 18.375H6.125C6.60625 18.375 7 17.9813 7 17.5V16.625H14V17.5C14 17.9813 14.3938 18.375 14.875 18.375H15.75C16.2312 18.375 16.625 17.9813 16.625 17.5V15.9425C17.1587 15.4612 17.5 14.77 17.5 14V5.25C17.5 2.1875 14.3675 1.75 10.5 1.75C6.6325 1.75 3.5 2.1875 3.5 5.25V14ZM6.5625 14.875C5.83625 14.875 5.25 14.2887 5.25 13.5625C5.25 12.8363 5.83625 12.25 6.5625 12.25C7.28875 12.25 7.875 12.8363 7.875 13.5625C7.875 14.2887 7.28875 14.875 6.5625 14.875ZM14.4375 14.875C13.7113 14.875 13.125 14.2887 13.125 13.5625C13.125 12.8363 13.7113 12.25 14.4375 12.25C15.1637 12.25 15.75 12.8363 15.75 13.5625C15.75 14.2887 15.1637 14.875 14.4375 14.875ZM15.75 9.625H5.25V5.25H15.75V9.625Z" fill="#535E6B"/>
</svg>
