<svg width="18" height="14" viewBox="0 0 18 14" fill="none" xmlns="http://www.w3.org/2000/svg">
<path fill-rule="evenodd" clip-rule="evenodd" d="M4.7125 0.564453H13.2839L13.2859 0.564456C13.855 0.566156 14.4005 0.792992 14.803 1.19542C15.2054 1.59785 15.4322 2.14318 15.4339 2.7123L15.4339 2.7142V5.99905C15.7402 6.14521 16.0224 6.34336 16.2669 6.58783C16.8299 7.15087 17.1473 7.91384 17.1496 8.71009L17.1496 8.71205L17.1496 12.4261L17.1496 12.428V12.7122V12.7139C17.1496 13.1123 16.8266 13.4353 16.4282 13.4353C16.0297 13.4353 15.7068 13.1123 15.7068 12.7139V12.7123C15.7068 12.7123 15.7068 12.7123 15.7068 12.7122L15.7068 12.43C15.7068 12.43 15.7068 12.4299 15.7068 12.4299C15.7065 12.3936 15.692 12.3586 15.6663 12.3329C15.6406 12.3073 15.6058 12.2927 15.5695 12.2925H2.42967C2.39337 12.2927 2.35862 12.3073 2.33295 12.3329C2.30727 12.3586 2.29273 12.3934 2.29247 12.4297V12.7122V12.7139C2.29247 13.1123 1.96947 13.4353 1.57104 13.4353C1.1726 13.4353 0.849609 13.1123 0.849609 12.7139L0.849609 12.7124C0.849609 12.7123 0.849609 12.7123 0.849609 12.7122L0.849612 12.4263L0.849612 8.71031C0.851965 7.91406 1.16932 7.15087 1.73236 6.58783C1.97611 6.34408 2.25733 6.14637 2.5625 6.00034L2.5625 2.71252C2.5642 2.1434 2.79104 1.59785 3.19347 1.19542C3.5959 0.792992 4.14123 0.566156 4.71035 0.564457L4.7125 0.564453ZM15.7068 10.8557C15.6624 10.8518 15.6178 10.8497 15.5729 10.8496L15.571 10.8496H2.42818L2.42609 10.8496C2.38131 10.8497 2.33673 10.8518 2.29247 10.8557V8.7134C2.29394 8.29868 2.45934 7.90135 2.75261 7.60808C3.02736 7.33333 3.39344 7.17081 3.77959 7.15017H14.2196C14.6058 7.17081 14.9719 7.33333 15.2466 7.60808C15.54 7.90143 15.7054 8.29889 15.7068 8.71372V10.8557ZM8.25044 5.70508H4.60872C4.62986 5.65098 4.66209 5.60128 4.70395 5.55942C4.78311 5.48025 4.89032 5.43556 5.00225 5.43505H7.8569C7.96883 5.43556 8.07604 5.48025 8.15521 5.55942C8.19707 5.60128 8.22929 5.65098 8.25044 5.70508ZM13.393 5.70508H9.75129C9.77244 5.65098 9.80466 5.60128 9.84652 5.55942C9.92569 5.48025 10.0329 5.43556 10.1448 5.43505H12.9995C13.1114 5.43556 13.2186 5.48025 13.2978 5.55942C13.3396 5.60128 13.3719 5.65098 13.393 5.70508ZM13.2827 2.00731H4.71377C4.52615 2.0081 4.34641 2.08299 4.21372 2.21568C4.08103 2.34837 4.00615 2.5281 4.00536 2.71573V4.28175C4.30036 4.09502 4.64435 3.99318 4.99898 3.99219L5.001 3.99219H7.85815L7.85996 3.99219C8.27533 3.99335 8.67626 4.13286 9.00086 4.38509C9.32542 4.13286 9.72619 3.99335 10.1416 3.99219L10.1436 3.99219H13.0007L13.0025 3.99219C13.3551 3.99318 13.6972 4.09381 13.9911 4.27843L13.9911 2.71607C13.9903 2.52841 13.9154 2.34839 13.7827 2.21568C13.65 2.08299 13.4703 2.0081 13.2827 2.00731Z" fill="#283646" fill-opacity="0.8"/>
</svg>
