<svg width="21" height="21" viewBox="0 0 21 21" fill="none" xmlns="http://www.w3.org/2000/svg">
<path d="M11.8125 4.8125C12.775 4.8125 13.5625 4.025 13.5625 3.0625C13.5625 2.1 12.775 1.3125 11.8125 1.3125C10.85 1.3125 10.0625 2.1 10.0625 3.0625C10.0625 4.025 10.85 4.8125 11.8125 4.8125ZM8.575 7.7875L6.125 20.125H7.9625L9.5375 13.125L11.375 14.875V20.125H13.125V13.5625L11.2875 11.8125L11.8125 9.1875C12.95 10.5 14.7 11.375 16.625 11.375V9.625C14.9625 9.625 13.5625 8.75 12.8625 7.525L11.9875 6.125C11.7512 5.74714 11.3881 5.4657 10.9633 5.33103C10.5385 5.19637 10.0796 5.21727 9.66875 5.39L5.25 7.2625V11.375H7V8.4L8.575 7.7875Z" fill="#535E6B"/>
</svg>
